<svg id="Layer_1" data-name="Layer 1" xmlns="http://www.w3.org/2000/svg" viewBox="0 0 846.13 427.39"><path d="M340.84,286.31q-6,0-11.75.39h-.22l-62.64.6c-16.3,1.09-20.6,6-24.35,11l-27,53.95a16.51,16.51,0,0,1-29.5,0l-28.2-56.17a16.51,16.51,0,0,0-14.76-9.1h-49a16.51,16.51,0,0,0-14.35,24.68l75.29,132.16a16.47,16.47,0,0,1,2.16,8.17v99.3a16.52,16.52,0,0,0,16.51,16.51H221a16.51,16.51,0,0,0,16.51-16.51V541.15a4.24,4.24,0,0,1,6.92-3.28c24.12,19.36,56.5,30.42,95.29,30.42,88.38,0,146.15-57.39,146.15-141.57v-3.06C485.84,338.72,424.24,286.31,340.84,286.31ZM404,427.87c0,49-24.11,78.82-62.75,78.82-37.88,0-63.13-28.7-63.13-78.44v-3.06c0-49.74,24.1-77.67,62.75-77.67S404,376.22,404,424.81Z" transform="translate(-76.94 -286.31)"/><path d="M778.06,286.31c-43.87,0-82.25,16-108.42,43.76a6.65,6.65,0,0,1-11.49-4.57h0a30.6,30.6,0,0,0-30.6-30.61H609.94a30.6,30.6,0,0,0-30.6,30.61V589.63c0,28.31-14.16,37.87-35.59,37.87h-2.1a30.66,30.66,0,0,0-31.18,30.6V682A30.63,30.63,0,0,0,537,712.32a172.07,172.07,0,0,0,23.21,1.37c64.28,0,97.95-33.67,97.95-99.47V531.43a6.65,6.65,0,0,1,11.43-4.63c24.88,26.16,61.66,41.49,107.33,41.49,88.38,0,146.15-57.39,146.15-141.57v-3.06C923.06,338.72,861.46,286.31,778.06,286.31Zm63.13,141.56c0,49-24.11,78.82-62.75,78.82-37.88,0-63.13-28.7-63.13-78.44v-3.06c0-49.74,24.1-77.67,62.75-77.67s63.13,28.7,63.13,77.29Z" transform="translate(-76.94 -286.31)"/><path d="M157.21,644.6l5,0a5.91,5.91,0,0,1,5.4,3.51c1.18,2.55,3.66,4.3,8.75,4.26s7.78-2.52,7.75-6.08c0-3.73-2.33-4.73-9.63-5.77-17.14-1.9-22.95-6.94-23.05-19.15-.09-10.93,8.84-19,23.33-19.09,11-.09,18.41,3.32,21.91,10.5a5.83,5.83,0,0,1-5.29,8.27l-4.59,0a5.8,5.8,0,0,1-5.07-3.15c-1.23-2.21-3.46-3.31-6.86-3.29-4.66,0-7,2.18-7,5.23,0,3.39,1.9,4.9,9.46,5.86,15.36,1.57,23.27,5.49,23.38,18.63.09,11.11-8.65,20.25-24.25,20.38-13.06.11-21.23-4.05-24.57-12A5.87,5.87,0,0,1,157.21,644.6Z" transform="translate(-76.94 -286.31)"/><path d="M212.74,616.17l-4,0a5.84,5.84,0,0,1-5.9-5.8l0-1.69a5.86,5.86,0,0,1,5.81-5.9l37.13-.3a5.85,5.85,0,0,1,5.9,5.8V610a5.85,5.85,0,0,1-5.81,5.9l-4,0a5.85,5.85,0,0,0-5.81,5.9l.29,35.51a5.85,5.85,0,0,1-5.81,5.9l-5.75,0a5.85,5.85,0,0,1-5.9-5.81L218.64,622A5.86,5.86,0,0,0,212.74,616.17Z" transform="translate(-76.94 -286.31)"/><path d="M259.13,638.43l-.24-30.18a5.85,5.85,0,0,1,5.8-5.9l5.67,0a5.85,5.85,0,0,1,5.91,5.8l.23,29.42c.07,8.56,2.23,12.7,9.6,12.64,7.21-.06,9.47-4,9.39-13L295.26,608a5.84,5.84,0,0,1,5.8-5.9l5.84,0a5.86,5.86,0,0,1,5.91,5.81l.24,29.92c.14,17.63-10.13,25.94-26.84,26.08C269.09,664,259.27,655.39,259.13,638.43Z" transform="translate(-76.94 -286.31)"/><path d="M324.09,607.72a5.85,5.85,0,0,1,5.8-5.9l16.19-.13c21.53-.17,32.56,10.5,32.71,29.32v.68c.15,18.91-10.95,30.45-32.31,30.62l-16.11.13a5.85,5.85,0,0,1-5.9-5.81Zm21.78,41.2c10.34-.08,14.88-5.55,14.79-16.82v-.68c-.09-11.53-4.71-16.41-15.22-16.33h0a3.83,3.83,0,0,0-3.79,3.85l.22,26.2a3.8,3.8,0,0,0,3.84,3.78Z" transform="translate(-76.94 -286.31)"/><path d="M393.22,601.31l5.85,0a5.85,5.85,0,0,1,5.9,5.81l.4,48.91a5.87,5.87,0,0,1-5.81,5.9l-5.84,0a5.85,5.85,0,0,1-5.9-5.81l-.4-48.91A5.84,5.84,0,0,1,393.22,601.31Z" transform="translate(-76.94 -286.31)"/><path d="M413.9,631.83v-.68c-.15-18.48,13.65-31,31.79-31.12,18.49-.15,32.23,11.36,32.38,30.18v.68c.15,18.65-12.55,31.47-32.13,31.63S414.05,650.06,413.9,631.83Zm46-.54v-.68c-.09-10.77-5.56-17.08-14.13-17S432,619.9,432,630.92v.68c.08,11,5.73,17.33,14.13,17.27C454.74,648.8,460,642.14,459.94,631.29Z" transform="translate(-76.94 -286.31)"/></svg>