<svg id="Layer_1" data-name="Layer 1" xmlns="http://www.w3.org/2000/svg" viewBox="0 0 846.13 427.39"><path fill="white" d="M340.84,286.31q-6,0-11.75.39h-.22l-62.64.6c-16.3,1.09-20.6,6-24.35,11l-27,53.95a16.51,16.51,0,0,1-29.5,0l-28.2-56.17a16.51,16.51,0,0,0-14.76-9.1h-49a16.51,16.51,0,0,0-14.35,24.68l75.29,132.16a16.47,16.47,0,0,1,2.16,8.17v99.3a16.52,16.52,0,0,0,16.51,16.51H221a16.51,16.51,0,0,0,16.51-16.51V541.15a4.24,4.24,0,0,1,6.92-3.28c24.12,19.36,56.5,30.42,95.29,30.42,88.38,0,146.15-57.39,146.15-141.57v-3.06C485.84,338.72,424.24,286.31,340.84,286.31ZM404,427.87c0,49-24.11,78.82-62.75,78.82-37.88,0-63.13-28.7-63.13-78.44v-3.06c0-49.74,24.1-77.67,62.75-77.67S404,376.22,404,424.81Z" transform="translate(-76.94 -286.31)"/><path fill="white" d="M778.06,286.31c-43.87,0-82.25,16-108.42,43.76a6.65,6.65,0,0,1-11.49-4.57h0a30.6,30.6,0,0,0-30.6-30.61H609.94a30.6,30.6,0,0,0-30.6,30.61V589.63c0,28.31-14.16,37.87-35.59,37.87h-2.1a30.66,30.66,0,0,0-31.18,30.6V682A30.63,30.63,0,0,0,537,712.32a172.07,172.07,0,0,0,23.21,1.37c64.28,0,97.95-33.67,97.95-99.47V531.43a6.65,6.65,0,0,1,11.43-4.63c24.88,26.16,61.66,41.49,107.33,41.49,88.38,0,146.15-57.39,146.15-141.57v-3.06C923.06,338.72,861.46,286.31,778.06,286.31Zm63.13,141.56c0,49-24.11,78.82-62.75,78.82-37.88,0-63.13-28.7-63.13-78.44v-3.06c0-49.74,24.1-77.67,62.75-77.67s63.13,28.7,63.13,77.29Z" transform="translate(-76.94 -286.31)"/></svg>
